<svg xmlns="http://www.w3.org/2000/svg" xmlns:xlink="http://www.w3.org/1999/xlink" viewBox="0 0 590 200" width="590" height="200"><path d="M 111.000,125.000 C 109.000,126.500 109.000,126.500 107.000,128.000" stroke-width="3.356" stroke="#111111" fill="none" stroke-linecap="round"/><path d="M 107.000,128.000 C 105.000,129.500 104.444,129.074 103.000,131.000" stroke-width="3.284" stroke="#111111" fill="none" stroke-linecap="round"/><path d="M 103.000,131.000 C 101.444,133.074 101.519,133.407 101.000,136.000" stroke-width="3.256" stroke="#111111" fill="none" stroke-linecap="round"/><path d="M 101.000,136.000 C 100.519,138.407 101.000,138.500 101.000,141.000" stroke-width="3.263" stroke="#111111" fill="none" stroke-linecap="round"/><path d="M 101.000,141.000 C 101.000,143.500 99.796,144.315 101.000,146.000" stroke-width="3.265" stroke="#111111" fill="none" stroke-linecap="round"/><path d="M 101.000,146.000 C 102.296,147.815 103.432,147.230 106.000,148.000" stroke-width="3.285" stroke="#111111" fill="none" stroke-linecap="round"/><path d="M 106.000,148.000 C 108.432,148.730 108.568,148.270 111.000,149.000" stroke-width="3.285" stroke="#111111" fill="none" stroke-linecap="round"/><path d="M 111.000,149.000 C 113.568,149.770 113.407,150.481 116.000,151.000" stroke-width="3.259" stroke="#111111" fill="none" stroke-linecap="round"/><path d="M 116.000,151.000 C 118.407,151.481 118.500,151.000 121.000,151.000" stroke-width="3.246" stroke="#111111" fill="none" stroke-linecap="round"/><path d="M 121.000,151.000 C 123.500,151.000 123.500,151.000 126.000,151.000" stroke-width="3.251" stroke="#111111" fill="none" stroke-linecap="round"/><path d="M 126.000,151.000 C 128.500,151.000 128.525,151.248 131.000,151.000" stroke-width="3.206" stroke="#111111" fill="none" stroke-linecap="round"/><path d="M 131.000,151.000 C 133.525,150.748 133.667,150.933 136.000,150.000" stroke-width="3.155" stroke="#111111" fill="none" stroke-linecap="round"/><path d="M 136.000,150.000 C 138.667,148.933 138.500,148.500 141.000,147.000" stroke-width="3.179" stroke="#111111" fill="none" stroke-linecap="round"/><path d="M 141.000,147.000 C 143.500,145.500 143.401,145.300 146.000,144.000" stroke-width="3.219" stroke="#111111" fill="none" stroke-linecap="round"/><path d="M 146.000,144.000 C 148.401,142.800 148.667,143.296 151.000,142.000" stroke-width="3.157" stroke="#111111" fill="none" stroke-linecap="round"/><path d="M 151.000,142.000 C 153.167,140.796 153.000,140.500 155.000,139.000" stroke-width="3.145" stroke="#111111" fill="none" stroke-linecap="round"/><path d="M 155.000,139.000 C 157.000,137.500 157.000,137.500 159.000,136.000" stroke-width="3.144" stroke="#111111" fill="none" stroke-linecap="round"/><path d="M 159.000,136.000 C 161.000,134.500 161.000,134.500 163.000,133.000" stroke-width="3.171" stroke="#111111" fill="none" stroke-linecap="round"/><path d="M 163.000,133.000 C 165.000,131.500 164.923,131.385 167.000,130.000" stroke-width="3.180" stroke="#111111" fill="none" stroke-linecap="round"/><path d="M 167.000,130.000 C 169.423,128.385 169.577,128.615 172.000,127.000" stroke-width="3.161" stroke="#111111" fill="none" stroke-linecap="round"/><path d="M 172.000,127.000 C 174.077,125.615 173.923,125.385 176.000,124.000" stroke-width="3.147" stroke="#111111" fill="none" stroke-linecap="round"/><path d="M 176.000,124.000 C 178.423,122.385 178.577,122.615 181.000,121.000" stroke-width="3.115" stroke="#111111" fill="none" stroke-linecap="round"/><path d="M 181.000,121.000 C 183.077,119.615 183.250,119.750 185.000,118.000" stroke-width="3.086" stroke="#111111" fill="none" stroke-linecap="round"/><path d="M 185.000,118.000 C 186.750,116.250 186.358,115.877 188.000,114.000" stroke-width="3.073" stroke="#111111" fill="none" stroke-linecap="round"/><path d="M 188.000,114.000 C 189.858,111.877 189.889,111.876 192.000,110.000" stroke-width="3.044" stroke="#111111" fill="none" stroke-linecap="round"/><path d="M 192.000,110.000 C 194.389,107.876 194.611,108.124 197.000,106.000" stroke-width="3.067" stroke="#111111" fill="none" stroke-linecap="round"/><path d="M 197.000,106.000 C 199.111,104.124 199.142,104.123 201.000,102.000" stroke-width="3.096" stroke="#111111" fill="none" stroke-linecap="round"/><path d="M 201.000,102.000 C 202.642,100.123 202.358,99.877 204.000,98.000" stroke-width="3.129" stroke="#111111" fill="none" stroke-linecap="round"/><path d="M 204.000,98.000 C 205.858,95.877 206.142,96.123 208.000,94.000" stroke-width="3.120" stroke="#111111" fill="none" stroke-linecap="round"/><path d="M 208.000,94.000 C 209.642,92.123 209.465,91.973 211.000,90.000" stroke-width="3.075" stroke="#111111" fill="none" stroke-linecap="round"/><path d="M 211.000,90.000 C 212.965,87.473 213.291,87.686 215.000,85.000" stroke-width="3.016" stroke="#111111" fill="none" stroke-linecap="round"/><path d="M 215.000,85.000 C 216.791,82.186 216.395,81.942 218.000,79.000" stroke-width="2.983" stroke="#111111" fill="none" stroke-linecap="round"/><path d="M 218.000,79.000 C 219.395,76.442 219.605,76.558 221.000,74.000" stroke-width="2.902" stroke="#111111" fill="none" stroke-linecap="round"/><path d="M 221.000,74.000 C 222.605,71.058 222.613,71.051 224.000,68.000" stroke-width="2.843" stroke="#111111" fill="none" stroke-linecap="round"/><path d="M 224.000,68.000 C 225.113,65.551 224.887,65.449 226.000,63.000" stroke-width="2.884" stroke="#111111" fill="none" stroke-linecap="round"/><path d="M 226.000,63.000 C 227.387,59.949 227.713,60.088 229.000,57.000" stroke-width="2.952" stroke="#111111" fill="none" stroke-linecap="round"/><path d="M 229.000,57.000 C 230.213,54.088 229.920,53.971 231.000,51.000" stroke-width="3.040" stroke="#111111" fill="none" stroke-linecap="round"/><path d="M 231.000,51.000 C 231.920,48.471 233.519,48.074 233.000,46.000" stroke-width="3.152" stroke="#111111" fill="none" stroke-linecap="round"/><path d="M 233.000,46.000 C 232.519,44.074 231.250,43.750 229.000,43.000" stroke-width="3.257" stroke="#111111" fill="none" stroke-linecap="round"/><path d="M 229.000,43.000 C 226.750,42.250 226.000,42.000 224.000,43.000" stroke-width="3.271" stroke="#111111" fill="none" stroke-linecap="round"/><path d="M 224.000,43.000 C 222.000,44.000 222.642,45.123 221.000,47.000" stroke-width="3.247" stroke="#111111" fill="none" stroke-linecap="round"/><path d="M 221.000,47.000 C 219.142,49.123 219.000,49.000 217.000,51.000" stroke-width="3.149" stroke="#111111" fill="none" stroke-linecap="round"/><path d="M 217.000,51.000 C 215.000,53.000 215.000,53.000 213.000,55.000" stroke-width="3.066" stroke="#111111" fill="none" stroke-linecap="round"/><path d="M 213.000,55.000 C 211.000,57.000 211.000,57.000 209.000,59.000" stroke-width="3.051" stroke="#111111" fill="none" stroke-linecap="round"/><path d="M 209.000,59.000 C 207.000,61.000 206.876,60.889 205.000,63.000" stroke-width="2.920" stroke="#111111" fill="none" stroke-linecap="round"/><path d="M 205.000,63.000 C 202.876,65.389 202.832,65.383 201.000,68.000" stroke-width="2.975" stroke="#111111" fill="none" stroke-linecap="round"/><path d="M 201.000,68.000 C 199.332,70.383 199.500,70.500 198.000,73.000" stroke-width="3.004" stroke="#111111" fill="none" stroke-linecap="round"/><path d="M 198.000,73.000 C 196.500,75.500 196.395,75.442 195.000,78.000" stroke-width="3.017" stroke="#111111" fill="none" stroke-linecap="round"/><path d="M 195.000,78.000 C 193.395,80.942 193.387,80.949 192.000,84.000" stroke-width="2.983" stroke="#111111" fill="none" stroke-linecap="round"/><path d="M 192.000,84.000 C 190.887,86.449 191.200,86.599 190.000,89.000" stroke-width="2.925" stroke="#111111" fill="none" stroke-linecap="round"/><path d="M 190.000,89.000 C 188.700,91.599 188.199,91.362 187.000,94.000" stroke-width="2.903" stroke="#111111" fill="none" stroke-linecap="round"/><path d="M 187.000,94.000 C 185.699,96.862 186.080,97.029 185.000,100.000" stroke-width="2.853" stroke="#111111" fill="none" stroke-linecap="round"/><path d="M 185.000,100.000 C 184.080,102.529 183.920,102.471 183.000,105.000" stroke-width="2.887" stroke="#111111" fill="none" stroke-linecap="round"/><path d="M 183.000,105.000 C 181.920,107.971 182.080,108.029 181.000,111.000" stroke-width="2.962" stroke="#111111" fill="none" stroke-linecap="round"/><path d="M 181.000,111.000 C 180.080,113.529 180.000,113.500 179.000,116.000" stroke-width="2.928" stroke="#111111" fill="none" stroke-linecap="round"/><path d="M 179.000,116.000 C 178.000,118.500 178.000,118.500 177.000,121.000" stroke-width="2.909" stroke="#111111" fill="none" stroke-linecap="round"/><path d="M 177.000,121.000 C 176.000,123.500 175.704,123.417 175.000,126.000" stroke-width="2.895" stroke="#111111" fill="none" stroke-linecap="round"/><path d="M 175.000,126.000 C 174.204,128.917 174.888,129.114 174.000,132.000" stroke-width="2.872" stroke="#111111" fill="none" stroke-linecap="round"/><path d="M 174.000,132.000 C 172.888,135.614 172.464,135.485 171.000,139.000" stroke-width="2.791" stroke="#111111" fill="none" stroke-linecap="round"/><path d="M 171.000,139.000 C 169.964,141.485 169.920,141.471 169.000,144.000" stroke-width="2.627" stroke="#111111" fill="none" stroke-linecap="round"/><path d="M 169.000,144.000 C 167.920,146.971 168.080,147.029 167.000,150.000" stroke-width="2.508" stroke="#111111" fill="none" stroke-linecap="round"/><path d="M 167.000,150.000 C 166.080,152.529 165.851,152.448 165.000,155.000" stroke-width="2.520" stroke="#111111" fill="none" stroke-linecap="round"/><path d="M 165.000,155.000 C 163.351,159.948 163.344,159.961 162.000,165.000" stroke-width="2.551" stroke="#111111" fill="none" stroke-linecap="round"/><path d="M 162.000,165.000 C 161.344,167.461 161.908,167.640 161.000,170.000" stroke-width="2.582" stroke="#111111" fill="none" stroke-linecap="round"/><path d="M 161.000,170.000 C 159.408,174.140 158.592,173.860 157.000,178.000" stroke-width="2.633" stroke="#111111" fill="none" stroke-linecap="round"/><path d="M 157.000,178.000 C 156.092,180.360 156.618,180.529 156.000,183.000" stroke-width="2.607" stroke="#111111" fill="none" stroke-linecap="round"/><path d="M 156.000,183.000 C 155.118,186.529 155.150,186.551 154.000,190.000" stroke-width="2.716" stroke="#111111" fill="none" stroke-linecap="round"/><path d="M 154.000,190.000 C 153.150,192.551 152.435,195.435 152.000,195.000" stroke-width="2.843" stroke="#111111" fill="none" stroke-linecap="round"/><path d="M 152.000,195.000 C 151.435,194.435 152.000,191.500 152.000,188.000" stroke-width="3.132" stroke="#111111" fill="none" stroke-linecap="round"/><path d="M 152.000,188.000 C 152.000,185.500 152.000,185.500 152.000,183.000" stroke-width="2.989" stroke="#111111" fill="none" stroke-linecap="round"/><path d="M 152.000,183.000 C 152.000,179.500 152.000,179.500 152.000,176.000" stroke-width="2.853" stroke="#111111" fill="none" stroke-linecap="round"/><path d="M 152.000,176.000 C 152.000,173.500 152.000,173.500 152.000,171.000" stroke-width="2.922" stroke="#111111" fill="none" stroke-linecap="round"/><path d="M 152.000,171.000 C 152.000,168.000 152.000,168.000 152.000,165.000" stroke-width="2.902" stroke="#111111" fill="none" stroke-linecap="round"/><path d="M 152.000,165.000 C 152.000,162.000 152.000,162.000 152.000,159.000" stroke-width="2.879" stroke="#111111" fill="none" stroke-linecap="round"/><path d="M 152.000,159.000 C 152.000,156.500 152.000,156.500 152.000,154.000" stroke-width="2.915" stroke="#111111" fill="none" stroke-linecap="round"/><path d="M 152.000,154.000 C 152.000,151.000 152.000,151.000 152.000,148.000" stroke-width="2.873" stroke="#111111" fill="none" stroke-linecap="round"/><path d="M 152.000,148.000 C 152.000,145.500 152.442,145.428 152.000,143.000" stroke-width="2.929" stroke="#111111" fill="none" stroke-linecap="round"/><path d="M 152.000,143.000 C 151.442,139.928 150.830,140.045 150.000,137.000" stroke-width="2.971" stroke="#111111" fill="none" stroke-linecap="round"/><path d="M 150.000,137.000 C 149.330,134.545 149.730,134.432 149.000,132.000" stroke-width="3.031" stroke="#111111" fill="none" stroke-linecap="round"/><path d="M 149.000,132.000 C 148.230,129.432 148.000,129.500 147.000,127.000" stroke-width="3.095" stroke="#111111" fill="none" stroke-linecap="round"/><path d="M 217.000,127.000 C 219.500,125.000 219.611,125.124 222.000,123.000" stroke-width="3.329" stroke="#111111" fill="none" stroke-linecap="round"/><path d="M 222.000,123.000 C 224.111,121.124 224.000,121.000 226.000,119.000" stroke-width="3.002" stroke="#111111" fill="none" stroke-linecap="round"/><path d="M 226.000,119.000 C 228.500,116.500 228.500,116.500 231.000,114.000" stroke-width="2.843" stroke="#111111" fill="none" stroke-linecap="round"/><path d="M 231.000,114.000 C 233.500,111.500 233.500,111.500 236.000,109.000" stroke-width="2.808" stroke="#111111" fill="none" stroke-linecap="round"/><path d="M 236.000,109.000 C 238.000,107.000 238.000,107.000 240.000,105.000" stroke-width="2.859" stroke="#111111" fill="none" stroke-linecap="round"/><path d="M 240.000,105.000 C 242.500,102.500 242.638,102.624 245.000,100.000" stroke-width="2.813" stroke="#111111" fill="none" stroke-linecap="round"/><path d="M 245.000,100.000 C 247.138,97.624 247.119,97.587 249.000,95.000" stroke-width="2.813" stroke="#111111" fill="none" stroke-linecap="round"/><path d="M 249.000,95.000 C 251.119,92.087 251.065,92.041 253.000,89.000" stroke-width="2.793" stroke="#111111" fill="none" stroke-linecap="round"/><path d="M 253.000,89.000 C 254.565,86.541 254.385,86.423 256.000,84.000" stroke-width="2.854" stroke="#111111" fill="none" stroke-linecap="round"/><path d="M 256.000,84.000 C 257.385,81.923 258.010,82.228 259.000,80.000" stroke-width="2.997" stroke="#111111" fill="none" stroke-linecap="round"/><path d="M 259.000,80.000 C 260.010,77.728 259.500,77.500 260.000,75.000" stroke-width="3.145" stroke="#111111" fill="none" stroke-linecap="round"/><path d="M 260.000,75.000 C 260.500,72.500 260.500,72.500 261.000,70.000" stroke-width="3.172" stroke="#111111" fill="none" stroke-linecap="round"/><path d="M 261.000,70.000 C 261.500,67.500 261.748,67.525 262.000,65.000" stroke-width="3.202" stroke="#111111" fill="none" stroke-linecap="round"/><path d="M 262.000,65.000 C 262.248,62.525 263.364,61.136 262.000,60.000" stroke-width="3.212" stroke="#111111" fill="none" stroke-linecap="round"/><path d="M 262.000,60.000 C 260.364,58.636 258.727,59.182 256.000,60.000" stroke-width="3.268" stroke="#111111" fill="none" stroke-linecap="round"/><path d="M 256.000,60.000 C 253.727,60.682 253.750,61.250 252.000,63.000" stroke-width="3.175" stroke="#111111" fill="none" stroke-linecap="round"/><path d="M 252.000,63.000 C 250.250,64.750 250.535,65.027 249.000,67.000" stroke-width="3.107" stroke="#111111" fill="none" stroke-linecap="round"/><path d="M 249.000,67.000 C 247.035,69.527 246.965,69.473 245.000,72.000" stroke-width="3.039" stroke="#111111" fill="none" stroke-linecap="round"/><path d="M 245.000,72.000 C 243.465,73.973 243.104,73.792 242.000,76.000" stroke-width="2.963" stroke="#111111" fill="none" stroke-linecap="round"/><path d="M 242.000,76.000 C 240.604,78.792 241.000,79.000 240.000,82.000" stroke-width="2.870" stroke="#111111" fill="none" stroke-linecap="round"/><path d="M 240.000,82.000 C 239.000,85.000 239.213,85.088 238.000,88.000" stroke-width="2.853" stroke="#111111" fill="none" stroke-linecap="round"/><path d="M 238.000,88.000 C 236.713,91.088 236.387,90.949 235.000,94.000" stroke-width="2.819" stroke="#111111" fill="none" stroke-linecap="round"/><path d="M 235.000,94.000 C 233.887,96.449 234.000,96.500 233.000,99.000" stroke-width="2.885" stroke="#111111" fill="none" stroke-linecap="round"/><path d="M 233.000,99.000 C 232.000,101.500 232.200,101.599 231.000,104.000" stroke-width="2.896" stroke="#111111" fill="none" stroke-linecap="round"/><path d="M 231.000,104.000 C 229.700,106.599 229.500,106.500 228.000,109.000" stroke-width="2.877" stroke="#111111" fill="none" stroke-linecap="round"/><path d="M 228.000,109.000 C 226.500,111.500 226.300,111.401 225.000,114.000" stroke-width="2.888" stroke="#111111" fill="none" stroke-linecap="round"/><path d="M 225.000,114.000 C 223.800,116.401 223.920,116.471 223.000,119.000" stroke-width="2.906" stroke="#111111" fill="none" stroke-linecap="round"/><path d="M 223.000,119.000 C 221.920,121.971 221.830,121.955 221.000,125.000" stroke-width="2.973" stroke="#111111" fill="none" stroke-linecap="round"/><path d="M 221.000,125.000 C 220.330,127.455 220.500,127.500 220.000,130.000" stroke-width="3.039" stroke="#111111" fill="none" stroke-linecap="round"/><path d="M 220.000,130.000 C 219.500,132.500 219.500,132.500 219.000,135.000" stroke-width="3.109" stroke="#111111" fill="none" stroke-linecap="round"/><path d="M 219.000,135.000 C 218.500,137.500 217.000,138.500 218.000,140.000" stroke-width="3.209" stroke="#111111" fill="none" stroke-linecap="round"/><path d="M 218.000,140.000 C 219.000,141.500 220.475,140.748 223.000,141.000" stroke-width="3.248" stroke="#111111" fill="none" stroke-linecap="round"/><path d="M 223.000,141.000 C 225.475,141.248 225.500,141.000 228.000,141.000" stroke-width="3.120" stroke="#111111" fill="none" stroke-linecap="round"/><path d="M 228.000,141.000 C 231.000,141.000 231.167,141.708 234.000,141.000" stroke-width="3.045" stroke="#111111" fill="none" stroke-linecap="round"/><path d="M 234.000,141.000 C 237.167,140.208 237.058,139.605 240.000,138.000" stroke-width="3.006" stroke="#111111" fill="none" stroke-linecap="round"/><path d="M 240.000,138.000 C 242.558,136.605 242.500,136.500 245.000,135.000" stroke-width="3.022" stroke="#111111" fill="none" stroke-linecap="round"/><path d="M 245.000,135.000 C 247.500,133.500 247.500,133.500 250.000,132.000" stroke-width="3.027" stroke="#111111" fill="none" stroke-linecap="round"/><path d="M 250.000,132.000 C 252.500,130.500 252.716,130.777 255.000,129.000" stroke-width="3.024" stroke="#111111" fill="none" stroke-linecap="round"/><path d="M 255.000,129.000 C 257.216,127.277 256.877,126.858 259.000,125.000" stroke-width="3.085" stroke="#111111" fill="none" stroke-linecap="round"/><path d="M 259.000,125.000 C 260.877,123.358 261.123,123.642 263.000,122.000" stroke-width="3.156" stroke="#111111" fill="none" stroke-linecap="round"/><path d="M 263.000,122.000 C 265.123,120.142 264.877,119.858 267.000,118.000" stroke-width="3.244" stroke="#111111" fill="none" stroke-linecap="round"/><path d="M 267.000,118.000 C 268.877,116.358 270.769,114.538 271.000,115.000" stroke-width="3.302" stroke="#111111" fill="none" stroke-linecap="round"/><path d="M 271.000,115.000 C 271.269,115.538 269.067,117.333 268.000,120.000" stroke-width="3.328" stroke="#111111" fill="none" stroke-linecap="round"/><path d="M 268.000,120.000 C 267.067,122.333 267.730,122.568 267.000,125.000" stroke-width="3.274" stroke="#111111" fill="none" stroke-linecap="round"/><path d="M 267.000,125.000 C 266.230,127.568 265.519,127.407 265.000,130.000" stroke-width="3.240" stroke="#111111" fill="none" stroke-linecap="round"/><path d="M 265.000,130.000 C 264.519,132.407 263.762,133.515 265.000,135.000" stroke-width="3.238" stroke="#111111" fill="none" stroke-linecap="round"/><path d="M 265.000,135.000 C 266.262,136.515 267.475,135.748 270.000,136.000" stroke-width="3.235" stroke="#111111" fill="none" stroke-linecap="round"/><path d="M 270.000,136.000 C 272.475,136.248 272.500,136.000 275.000,136.000" stroke-width="3.199" stroke="#111111" fill="none" stroke-linecap="round"/><path d="M 275.000,136.000 C 277.500,136.000 277.593,136.481 280.000,136.000" stroke-width="3.212" stroke="#111111" fill="none" stroke-linecap="round"/><path d="M 280.000,136.000 C 282.593,135.481 282.667,135.296 285.000,134.000" stroke-width="3.187" stroke="#111111" fill="none" stroke-linecap="round"/><path d="M 285.000,134.000 C 287.167,132.796 287.000,132.500 289.000,131.000" stroke-width="3.184" stroke="#111111" fill="none" stroke-linecap="round"/><path d="M 289.000,131.000 C 291.000,129.500 291.123,129.642 293.000,128.000" stroke-width="3.185" stroke="#111111" fill="none" stroke-linecap="round"/><path d="M 293.000,128.000 C 295.123,126.142 294.877,125.858 297.000,124.000" stroke-width="3.169" stroke="#111111" fill="none" stroke-linecap="round"/><path d="M 297.000,124.000 C 298.877,122.358 299.000,122.500 301.000,121.000" stroke-width="3.218" stroke="#111111" fill="none" stroke-linecap="round"/><path d="M 301.000,121.000 C 303.000,119.500 304.750,117.750 305.000,118.000" stroke-width="3.293" stroke="#111111" fill="none" stroke-linecap="round"/><path d="M 305.000,118.000 C 305.250,118.250 303.204,119.833 302.000,122.000" stroke-width="3.320" stroke="#111111" fill="none" stroke-linecap="round"/><path d="M 302.000,122.000 C 300.704,124.333 300.519,124.407 300.000,127.000" stroke-width="3.254" stroke="#111111" fill="none" stroke-linecap="round"/><path d="M 300.000,127.000 C 299.519,129.407 299.250,129.750 300.000,132.000" stroke-width="3.228" stroke="#111111" fill="none" stroke-linecap="round"/><path d="M 300.000,132.000 C 300.750,134.250 301.000,135.000 303.000,136.000" stroke-width="3.263" stroke="#111111" fill="none" stroke-linecap="round"/><path d="M 303.000,136.000 C 305.000,137.000 305.525,136.248 308.000,136.000" stroke-width="3.205" stroke="#111111" fill="none" stroke-linecap="round"/><path d="M 308.000,136.000 C 310.525,135.748 310.667,135.933 313.000,135.000" stroke-width="3.161" stroke="#111111" fill="none" stroke-linecap="round"/><path d="M 313.000,135.000 C 315.667,133.933 315.401,133.300 318.000,132.000" stroke-width="3.158" stroke="#111111" fill="none" stroke-linecap="round"/><path d="M 318.000,132.000 C 320.401,130.800 320.805,131.463 323.000,130.000" stroke-width="3.205" stroke="#111111" fill="none" stroke-linecap="round"/><path d="M 323.000,130.000 C 325.305,128.463 324.877,127.858 327.000,126.000" stroke-width="3.199" stroke="#111111" fill="none" stroke-linecap="round"/><path d="M 327.000,126.000 C 328.877,124.358 329.250,124.750 331.000,123.000" stroke-width="3.211" stroke="#111111" fill="none" stroke-linecap="round"/><path d="M 331.000,123.000 C 332.750,121.250 332.500,121.000 334.000,119.000" stroke-width="3.241" stroke="#111111" fill="none" stroke-linecap="round"/><path d="M 334.000,119.000 C 335.500,117.000 336.759,114.759 337.000,115.000" stroke-width="3.323" stroke="#111111" fill="none" stroke-linecap="round"/><path d="M 337.000,115.000 C 337.259,115.259 335.519,117.407 335.000,120.000" stroke-width="3.350" stroke="#111111" fill="none" stroke-linecap="round"/><circle r="1" cx="281" cy="94" fill="#111111"/></svg>